# xmcd
#
# Track frame offsets:
#	150
#	14142
#	30865
#	45163
#	60698
#	74335
#	96373
#	111786
#	125827
#	145486
#	169315
#	182384
#	197445
#	211022
#	225815
#	243764
#	256143
#
# Disc length: 3586 seconds
#
# Revision: 0
# Processed by: cddbd v1.5.2PL0 Copyright (c) Steve Scherf et al.
# Submitted via: dBpowerAMP V4.0
#
DISCID=dd0e0011
DTITLE=David Allen Coe - 17 Greatest Hits
DYEAR=1990
DGENRE=Country
TTITLE0=She Used To Love Me Alot
TTITLE1=Mona Lisa Lost Her Smile
TTITLE2=The Ride
TTITLE3=Now I Lay Me Down To Cheat
TTITLE4=Tennessee Whiskey
TTITLE5=If That Ain't Country
TTITLE6=Longhaired Redneck
TTITLE7=Jody Like A Melody
TTITLE8=Please Come To Boston
TTITLE9=You Never Even Called Me By My Name
TTITLE10=This Bottle (In My Hand)
TTITLE11=Would You Lay With Me In
TTITLE12=Jack Daniel's, If You Please
TTITLE13=Take This Job And Shove It
TTITLE14=Willie, Waylon And Me
TTITLE15=Pledging My Love
TTITLE16=Hank Williams Junior-Junior
EXTD=
EXTT0=
EXTT1=
EXTT2=
EXTT3=
EXTT4=
EXTT5=
EXTT6=
EXTT7=
EXTT8=
EXTT9=
EXTT10=
EXTT11=
EXTT12=
EXTT13=
EXTT14=
EXTT15=
EXTT16=
PLAYORDER=
